<svg width="93" height="64" viewBox="0 0 93 64" fill="none" xmlns="http://www.w3.org/2000/svg">
<g clip-path="url(#clip0_1_46)">
<path fill-rule="evenodd" clip-rule="evenodd" d="M24.1803 20.897H28.4114V47.0193H24.1803V20.897ZM43.1282 38.7391C43.1282 42.7862 39.817 43.1542 38.7132 43.1542C36.1378 43.1542 35.7699 40.7627 35.7699 39.475V29.3572H31.5388V39.291C31.5388 41.6825 32.2746 43.89 33.7463 45.1777C35.034 46.4654 36.6896 47.0173 38.7132 47.0173C40.1849 47.0173 42.0245 46.6494 43.1282 45.5456V47.0173H47.3593V29.3572H43.1282V38.7391ZM51.4062 22.9192H55.6373V29.3578H58.7646V33.4049H55.6373V47.0179H51.4062V33.4049H48.2789V29.3578H51.4062V22.9192ZM72.0097 41.6844C71.0899 42.4203 69.8022 42.9722 68.5145 42.9722C65.5711 42.9722 63.5475 40.7646 63.5475 37.8213C63.5475 34.8779 65.5711 32.8544 68.5145 32.8544C69.8022 32.8544 71.0899 33.2223 72.0097 34.1421L72.5616 34.694L75.5049 31.9346L74.7691 31.3827C73.1134 29.911 70.9059 28.9912 68.5145 28.9912C63.3636 28.9912 59.5004 32.8544 59.5004 38.0052C59.5004 43.1561 63.3636 47.0193 68.5145 47.0193C70.9059 47.0193 73.1134 46.0995 74.7691 44.6278L75.5049 44.0759L72.5616 41.1326L72.0097 41.6844ZM85.8064 28.9912C87.83 28.9912 89.1177 29.5431 90.4054 30.8308C91.6931 32.1185 92.245 34.3261 92.245 36.7175V46.8353H88.0139V36.5336C88.0139 36.4567 88.0146 36.3759 88.0153 36.2918V36.2905C88.0261 34.9674 88.0433 32.8544 85.6225 32.8544C84.5187 32.8544 81.7593 33.2223 81.7593 37.2694V47.0193H77.5282V20.897H81.7593V30.4629C82.8631 29.3591 84.3347 28.9912 85.8064 28.9912ZM68.3306 40.95C69.9562 40.95 71.2739 39.6322 71.2739 38.0066C71.2739 36.381 69.9562 35.0632 68.3306 35.0632C66.705 35.0632 65.3872 36.381 65.3872 38.0066C65.3872 39.6322 66.705 40.95 68.3306 40.95ZM12.2229 42.9731C14.6144 42.9731 16.8219 42.0533 18.2936 40.5816L18.8455 40.0297L21.6049 42.7891L21.053 43.341C18.8455 45.7325 15.5342 47.0202 12.2229 47.0202C5.41638 47.0202 0.265503 41.5014 0.265503 34.327C0.265503 27.1525 5.41638 21.6337 12.4069 21.8177C15.7181 21.8177 18.8455 23.1054 21.2369 25.4969L21.7888 26.0488L19.0294 28.8082L18.4775 28.2563C16.8219 26.6007 14.6144 25.6809 12.4069 25.6809C7.6239 25.6809 4.31262 29.3601 4.31262 34.327C4.31262 39.2939 7.6239 42.9731 12.2229 42.9731Z" fill="white"/>
</g>
<defs>
<clipPath id="clip0_1_46">
<rect width="92.7347" height="64" fill="white" transform="translate(0.265381)"/>
</clipPath>
</defs>
</svg>
