<svg width="48" height="48" viewBox="0 0 48 48" fill="none" xmlns="http://www.w3.org/2000/svg">
<g clip-path="url(#clip0_156_131)">
<path d="M38.304 0H9.696C4.338 0 0 4.338 0 9.696V38.31C0 43.662 4.338 48 9.696 48H38.31C43.662 48 48.006 43.662 48.006 38.304V9.696C48 4.338 43.662 0 38.304 0Z" fill="url(#paint0_linear_156_131)"/>
<path d="M23.7965 11.0282L24.7685 9.34818C25.3685 8.29818 26.7065 7.94418 27.7565 8.54418C28.8065 9.14418 29.1605 10.4822 28.5605 11.5322L19.1945 27.7442H25.9685C28.1645 27.7442 29.3945 30.3242 28.4405 32.1122H8.58048C7.36848 32.1122 6.39648 31.1402 6.39648 29.9282C6.39648 28.7162 7.36848 27.7442 8.58048 27.7442H14.1485L21.2765 15.3902L19.0505 11.5262C18.4505 10.4762 18.8045 9.15018 19.8545 8.53818C20.9045 7.93818 22.2305 8.29218 22.8425 9.34218L23.7965 11.0282ZM15.3725 34.3622L13.2725 38.0042C12.6725 39.0542 11.3345 39.4082 10.2845 38.8082C9.23448 38.2082 8.88048 36.8702 9.48048 35.8202L11.0405 33.1202C12.8045 32.5742 14.2385 32.9942 15.3725 34.3622ZM33.4565 27.7562H39.1385C40.3505 27.7562 41.3225 28.7282 41.3225 29.9402C41.3225 31.1522 40.3505 32.1242 39.1385 32.1242H35.9825L38.1125 35.8202C38.7125 36.8702 38.3585 38.1962 37.3085 38.8082C36.2585 39.4082 34.9325 39.0542 34.3205 38.0042C30.7325 31.7822 28.0385 27.1262 26.2505 24.0242C24.4205 20.8682 25.7285 17.7002 27.0185 16.6262C28.4525 19.0862 30.5945 22.8002 33.4565 27.7562Z" fill="white"/>
</g>
<defs>
<linearGradient id="paint0_linear_156_131" x1="24.003" y1="0" x2="24.003" y2="48" gradientUnits="userSpaceOnUse">
<stop stop-color="#18BFFB"/>
<stop offset="1" stop-color="#2072F3"/>
</linearGradient>
<clipPath id="clip0_156_131">
<rect width="48" height="48" fill="white"/>
</clipPath>
</defs>
</svg>
